<?xml version="1.0" standalone="no"?>
<!DOCTYPE svg PUBLIC "-//W3C//DTD SVG 20010904//EN"
 "http://www.w3.org/TR/2001/REC-SVG-20010904/DTD/svg10.dtd">
<svg version="1.0" xmlns="http://www.w3.org/2000/svg"
 width="700.000000pt" height="700.000000pt" viewBox="0 0 700.000000 700.000000"
 preserveAspectRatio="xMidYMid meet">
<metadata>
Created by potrace 1.11, written by Peter Selinger 2001-2013
</metadata>
<g transform="translate(0.000000,700.000000) scale(0.100000,-0.100000)"
fill="#000000" stroke="none">
<path d="M740 6421 c-102 -33 -160 -106 -166 -208 -8 -137 82 -233 231 -247
65 -6 95 -18 138 -56 72 -63 67 85 68 -1989 0 -1026 2 -1877 3 -1891 4 -50 29
-136 54 -190 110 -239 338 -388 599 -392 l75 -1 -56 -30 c-106 -57 -194 -168
-226 -285 -6 -24 -11 -76 -11 -115 1 -338 373 -554 666 -387 307 175 302 620
-8 786 l-58 30 1441 0 c792 0 1440 -3 1440 -8 0 -4 -4 -8 -8 -8 -28 0 -137
-86 -176 -140 -166 -225 -92 -544 156 -668 157 -79 331 -63 474 44 150 111
213 317 153 496 -34 103 -116 202 -204 249 -25 13 -45 27 -45 30 0 3 109 5
243 5 133 -1 262 3 287 8 130 26 208 160 170 296 -13 47 -63 106 -113 133
l-42 22 -2110 5 -2110 5 -35 22 c-40 25 -70 62 -87 107 -13 35 -18 452 -5 459
4 3 48 8 97 12 50 4 110 9 135 11 25 3 68 7 95 9 28 2 79 6 115 10 36 3 88 8
115 10 28 3 75 7 105 10 30 2 84 7 120 10 36 3 81 8 100 10 19 2 71 7 115 10
44 3 103 8 130 10 108 11 143 14 215 20 41 3 95 8 120 11 25 2 74 6 110 9 36
3 85 7 110 10 25 2 72 7 105 9 33 3 89 8 125 12 36 3 85 7 110 9 110 10 179
16 225 21 58 5 117 10 230 19 44 4 91 8 105 11 14 2 63 6 110 10 47 3 99 7
115 9 17 1 66 6 110 9 44 4 98 9 120 11 22 2 69 7 105 10 114 10 252 22 340
30 36 4 86 8 112 10 26 2 73 6 105 9 32 3 86 8 121 11 92 7 182 15 222 20 19
2 73 7 120 10 47 4 92 8 100 10 14 3 210 18 238 18 9 0 12 287 12 1399 l0
1398 -2260 0 -2260 0 -1 70 c-1 39 -2 73 -3 78 -1 4 -5 25 -10 47 -45 232
-221 428 -451 501 -84 27 -221 40 -265 25z m1508 -1425 l-3 -241 -387 -3 -388
-2 0 243 0 244 390 0 390 0 -2 -241z m1093 230 c1 -14 1 -412 0 -449 l-1 -27
-387 2 -388 3 -1 235 c0 129 1 238 3 241 5 12 773 7 774 -5z m1091 -5 c2 -9 4
-117 3 -241 l0 -225 -387 -3 c-307 -2 -388 0 -389 10 0 16 0 413 0 449 l1 26
384 1 c349 0 385 -2 388 -17z m1098 -228 l0 -243 -390 0 -390 0 0 243 0 244
390 0 390 0 0 -244z m-3282 -801 l2 -242 -390 0 -390 0 0 243 0 242 388 0 387
0 3 -243z m1087 236 c6 -6 9 -284 6 -450 l-1 -28 -388 0 -388 0 2 243 c1 133
2 242 3 242 17 5 762 -2 766 -7z m1100 -235 l0 -243 -389 2 -389 3 1 185 c0
102 1 210 1 240 l1 56 388 0 387 -1 0 -242z m1093 0 l2 -243 -390 0 -390 0 0
239 c0 167 3 240 11 243 6 2 181 4 388 3 l376 0 3 -242z m-3285 -562 c4 -1 7
-134 7 -296 l0 -294 -32 -5 c-34 -6 -96 -12 -208 -21 -242 -20 -298 -25 -345
-30 -22 -2 -71 -7 -110 -11 -38 -3 -73 -8 -77 -11 -8 -4 -11 660 -4 668 4 3
743 3 769 0z m1093 -4 c7 -7 9 -485 2 -492 -1 -2 -34 -6 -73 -9 -38 -3 -99 -9
-135 -12 -99 -10 -119 -12 -200 -19 -254 -21 -303 -26 -332 -31 -16 -3 -29 -2
-29 3 -1 4 -2 133 -3 285 -2 272 -1 277 19 280 43 6 745 2 751 -5z m1099 -186
c0 -106 -2 -196 -5 -201 -3 -4 -43 -11 -90 -14 -47 -4 -101 -8 -120 -11 -19
-2 -71 -7 -115 -11 -44 -3 -91 -7 -105 -9 -14 -1 -61 -5 -105 -9 -73 -6 -134
-12 -207 -20 -26 -3 -28 0 -29 33 0 46 0 378 0 411 l1 25 387 -1 388 0 0 -193z
m1088 190 c4 -1 7 -68 7 -151 0 -113 -3 -150 -12 -151 -7 -1 -22 -3 -33 -4
-11 -1 -56 -6 -100 -9 -44 -4 -125 -11 -180 -16 -55 -5 -131 -12 -170 -15 -38
-3 -88 -7 -110 -10 -22 -2 -70 -7 -107 -11 l-68 -6 0 185 c0 115 4 187 10 189
9 3 741 2 763 -1z"/>
</g>
</svg>
